<svg width="118" height="118" viewBox="0 0 118 118" fill="none" xmlns="http://www.w3.org/2000/svg">
<path d="M48.76 108.536C41.9333 108.536 35.576 107.299 29.688 104.824C23.8853 102.349 18.808 98.8933 14.456 94.456C10.104 90.0187 6.69067 84.8133 4.216 78.84C1.82667 72.8667 0.632 66.3387 0.632 59.256C0.632 52.1733 1.82667 45.6453 4.216 39.672C6.60533 33.6133 9.976 28.408 14.328 24.056C18.68 19.6187 23.7573 16.2053 29.56 13.816C35.448 11.3413 41.848 10.104 48.76 10.104C55.672 10.104 61.8587 11.256 67.32 13.56C72.8667 15.864 77.56 18.936 81.4 22.776C85.24 26.616 87.9707 30.8827 89.592 35.576L72.056 44.024C70.4347 39.416 67.576 35.6187 63.48 32.632C59.4693 29.56 54.5627 28.024 48.76 28.024C43.128 28.024 38.1787 29.3467 33.912 31.992C29.6453 34.6373 26.3173 38.3067 23.928 43C21.624 47.608 20.472 53.0267 20.472 59.256C20.472 65.4853 21.624 70.9467 23.928 75.64C26.3173 80.3333 29.6453 84.0027 33.912 86.648C38.1787 89.2933 43.128 90.616 48.76 90.616C54.5627 90.616 59.4693 89.1227 63.48 86.136C67.576 83.064 70.4347 79.224 72.056 74.616L89.592 83.064C87.9707 87.7573 85.24 92.024 81.4 95.864C77.56 99.704 72.8667 102.776 67.32 105.08C61.8587 107.384 55.672 108.536 48.76 108.536Z" fill="#F24E1D"/>
<circle cx="108" cy="99" r="9" fill="#4262FF"/>
</svg>
